<svg id="Capa_1" enable-background="new 0 0 512 512" height="512" viewBox="0 0 512 512" width="512" xmlns="http://www.w3.org/2000/svg"><path d="m376.673 82.024h63.229l-63.229-63.229z" data-original="#000000" class="active-path" style="fill: rgb(237, 43, 72);"></path><path d="m346.673 112.024v-112.024h-293.37v512h405.395v-399.976zm-44.683 18.592-21.213 21.213-24.777-24.777-24.777 24.777-21.213-21.213 24.777-24.777-24.777-24.776 21.213-21.213 24.777 24.777 24.777-24.777 21.213 21.213-24.777 24.777zm-143.615 111.192v30h-30.024v-30zm-30.024-30.048v-30h30.024v30zm30.024 90.096v30h-30.024v-30zm0 60.048v30h-30.024v-30zm0 60.048v30h-30.024v-30zm225.274-60.048v30h-195.25v-30zm-195.25-30.048v-30h195.25v30zm195.25 90.096v30h-195.25v-30zm0-150.144h-195.25v-30h195.25zm0-90.048v30h-195.25v-30z" data-original="#000000" class="active-path" style="fill: rgb(237, 43, 72);"></path></svg>