<!--?xml version="1.0" ?--><svg data-name="Layer 1" id="Layer_1" viewBox="0 0 64 64" xmlns="http://www.w3.org/2000/svg" class=""><defs><style>.cls-1{fill:#0a1827;}</style></defs><title></title><path class="cls-1 active-path " d="M11,55V53H9v6a2,2,0,0,0,2,2H49a2,2,0,0,0,2-2H15A4,4,0,0,1,11,55Z" data-original="#0A1827" style="fill: rgb(153, 27, 181);"></path><path class="cls-1 active-path" d="M43,17H55L41,3V15A2,2,0,0,0,43,17Z" data-original="#0A1827" style="fill: rgb(153, 27, 181);"></path><path class="cls-1 active-path" d="M13,49H11V7A2,2,0,0,0,9,9V51h4v4a2,2,0,0,0,2,2H53a2,2,0,0,0,2-2V49H13Z" data-original="#0A1827" style="fill: rgb(153, 27, 181);"></path><path class="cls-1 active-path  " d="M43,19a4,4,0,0,1-4-4V3H15a2,2,0,0,0-2,2V47H55V19Zm1.8,5.6-11.91,16a1,1,0,0,1-.74.4h-.07a1,1,0,0,1-.72-.31l-8.08-8.48a1,1,0,0,1,0-1.42,1,1,0,0,1,1.41,0L32,38.45,43.2,23.4a1,1,0,1,1,1.6,1.2Z" data-original="#0A1827" style="fill: rgb(153, 27, 181);"></path></svg>