<svg id="Слой_1" enable-background="new 0 0 56 56" height="512" viewBox="0 0 56 56" width="512" xmlns="http://www.w3.org/2000/svg" class=""><g id="XMLID_8405_"><g id="XMLID_8425_"><path id="XMLID_8440_" d="m31.873 47.312c-1.426.317-2.902.498-4.422.498-11.226 0-20.358-9.133-20.358-20.358s9.133-20.358 20.359-20.358 20.358 9.132 20.358 20.357c0 1.52-.18 2.996-.498 4.422.903.451 1.737 1.014 2.486 1.676.531-1.944.82-3.987.82-6.098 0-12.773-10.393-23.166-23.167-23.166s-23.166 10.393-23.166 23.166c0 12.774 10.393 23.167 23.167 23.167 2.11 0 4.153-.289 6.097-.82-.661-.749-1.225-1.583-1.676-2.486z" data-original="#000000" class="active-path " style="fill: rgb(37, 134, 219);"></path></g><path id="XMLID_8428_" d="m42.185 32.655c-5.263 0-9.53 4.267-9.53 9.53s4.267 9.53 9.53 9.53 9.53-4.267 9.53-9.53-4.267-9.53-9.53-9.53zm1 15.628v1.027h-2v-1.136c-1.952-.432-3.03-1.757-3.439-2.4l-.538-.843 1.687-1.075.538.844c.453.71 1.309 1.534 2.814 1.61h.435c1.896-.097 2.09-1.362 2.1-1.759-.006-.131-.133-1.476-2.734-1.513-2.785-.039-3.778-1.432-4.123-2.258-.44-1.059-.248-2.287.503-3.207.482-.592 1.339-1.271 2.758-1.467v-1.068h2v1.137c1.346.29 2.413 1.079 3.001 2.275l.441.897-1.795.883-.441-.897c-.285-.58-.922-1.274-2.34-1.287-.935-.013-1.64.258-2.075.791-.284.349-.363.798-.207 1.175.276.663 1.052 1.009 2.305 1.026 3.752.054 4.719 2.335 4.706 3.534.001.951-.662 3.366-3.596 3.711z" data-original="#000000" class="active-path " style="fill: rgb(37, 134, 219);"></path><circle id="XMLID_8426_" cx="27.452" cy="27.452" r=".729" data-original="#000000" class="active-path" style="fill: rgb(37, 134, 219);"></circle><path id="XMLID_8439_" d="m27.452 9.093c-10.139 0-18.358 8.219-18.358 18.358s8.219 18.358 18.358 18.358c1.26 0 2.49-.128 3.679-.37-.305-1.034-.476-2.124-.476-3.255 0-6.357 5.172-11.529 11.53-11.529 1.131 0 2.221.171 3.255.475.242-1.189.37-2.419.37-3.679 0-10.138-8.219-18.358-18.358-18.358zm-1 2.939h2v3.399h-2zm-11.02 16.419h-3.4v-2h3.4zm1.823-12.609 2.404 2.403-1.414 1.414-2.404-2.403zm.036 23.256-1.415-1.414 2.438-2.439 1.415 1.414zm11.161 3.773h-2v-3.399h2zm-1-12.69c-.367 0-.717-.075-1.037-.207l-4.433 4.434-1.414-1.414 4.409-4.409c-.159-.346-.254-.728-.254-1.133 0-1.151.719-2.133 1.729-2.533v-6.055h2v6.055c1.01.4 1.729 1.382 1.729 2.533 0 1.504-1.224 2.729-2.729 2.729zm9.206-10.522-1.414-1.414 2.404-2.403 1.414 1.414zm6.213 8.792h-3.399v-2h3.399z" data-original="#000000" class="active-path " style="fill: rgb(37, 134, 219);"></path></g></svg>